<mxfile host="app.diagrams.net" modified="2023-12-26T11:50:18.210Z" agent="Mozilla/5.0 (Windows NT 10.0; Win64; x64) AppleWebKit/537.36 (KHTML, like Gecko) Chrome/120.0.0.0 Safari/537.36" etag="Qm7s9RhzYedWQnYLzhDo" version="22.1.9" type="github">
  <diagram name="第 1 页" id="JhB41wdzhbessd_QbkDU">
    <mxGraphModel dx="567" dy="1469" grid="1" gridSize="10" guides="1" tooltips="1" connect="1" arrows="1" fold="1" page="1" pageScale="1" pageWidth="827" pageHeight="1169" math="0" shadow="0">
      <root>
        <mxCell id="0" />
        <mxCell id="1" parent="0" />
        <mxCell id="TvfbEHWfSeIX3GBcZRCY-2" value="template &amp;lt;typename M&amp;gt;&lt;br&gt;Receiver" style="swimlane;fontStyle=1;align=center;verticalAlign=top;childLayout=stackLayout;horizontal=1;startSize=40;horizontalStack=0;resizeParent=1;resizeParentMax=0;resizeLast=0;collapsible=1;marginBottom=0;whiteSpace=wrap;html=1;" vertex="1" parent="1">
          <mxGeometry x="310" y="160" width="480" height="154" as="geometry" />
        </mxCell>
        <mxCell id="TvfbEHWfSeIX3GBcZRCY-7" value="&lt;div&gt;&amp;nbsp; using MessagePtr = std::shared_ptr&amp;lt;M&amp;gt;;&lt;/div&gt;&lt;div&gt;&amp;nbsp; using MessageListener = std::function&amp;lt;void(&lt;/div&gt;&lt;div&gt;&amp;nbsp; &amp;nbsp; &amp;nbsp; const MessagePtr&amp;amp;, const MessageInfo&amp;amp;, const RoleAttributes&amp;amp;)&amp;gt;;&lt;/div&gt;" style="text;strokeColor=none;fillColor=none;align=left;verticalAlign=top;spacingLeft=4;spacingRight=4;overflow=hidden;rotatable=0;points=[[0,0.5],[1,0.5]];portConstraint=eastwest;whiteSpace=wrap;html=1;" vertex="1" parent="TvfbEHWfSeIX3GBcZRCY-2">
          <mxGeometry y="40" width="480" height="50" as="geometry" />
        </mxCell>
        <mxCell id="TvfbEHWfSeIX3GBcZRCY-3" value="+ field: type" style="text;strokeColor=none;fillColor=none;align=left;verticalAlign=top;spacingLeft=4;spacingRight=4;overflow=hidden;rotatable=0;points=[[0,0.5],[1,0.5]];portConstraint=eastwest;whiteSpace=wrap;html=1;" vertex="1" parent="TvfbEHWfSeIX3GBcZRCY-2">
          <mxGeometry y="90" width="480" height="26" as="geometry" />
        </mxCell>
        <mxCell id="TvfbEHWfSeIX3GBcZRCY-4" value="" style="line;strokeWidth=1;fillColor=none;align=left;verticalAlign=middle;spacingTop=-1;spacingLeft=3;spacingRight=3;rotatable=0;labelPosition=right;points=[];portConstraint=eastwest;strokeColor=inherit;" vertex="1" parent="TvfbEHWfSeIX3GBcZRCY-2">
          <mxGeometry y="116" width="480" height="8" as="geometry" />
        </mxCell>
        <mxCell id="TvfbEHWfSeIX3GBcZRCY-5" value="+&amp;nbsp; &amp;nbsp;OnNewMessage(msg:const MessagePtr&amp;amp;, msg_info:const MessageInfo&amp;amp;)" style="text;strokeColor=none;fillColor=none;align=left;verticalAlign=top;spacingLeft=4;spacingRight=4;overflow=hidden;rotatable=0;points=[[0,0.5],[1,0.5]];portConstraint=eastwest;whiteSpace=wrap;html=1;" vertex="1" parent="TvfbEHWfSeIX3GBcZRCY-2">
          <mxGeometry y="124" width="480" height="30" as="geometry" />
        </mxCell>
        <mxCell id="TvfbEHWfSeIX3GBcZRCY-8" value="template &amp;lt;typename M&amp;gt;&lt;br&gt;ShmReceiver" style="swimlane;fontStyle=1;align=center;verticalAlign=top;childLayout=stackLayout;horizontal=1;startSize=40;horizontalStack=0;resizeParent=1;resizeParentMax=0;resizeLast=0;collapsible=1;marginBottom=0;whiteSpace=wrap;html=1;" vertex="1" parent="1">
          <mxGeometry x="310" y="370" width="480" height="74" as="geometry" />
        </mxCell>
        <mxCell id="TvfbEHWfSeIX3GBcZRCY-10" value="+ dispatcher_: ShmDispatcherPtr" style="text;strokeColor=none;fillColor=none;align=left;verticalAlign=top;spacingLeft=4;spacingRight=4;overflow=hidden;rotatable=0;points=[[0,0.5],[1,0.5]];portConstraint=eastwest;whiteSpace=wrap;html=1;" vertex="1" parent="TvfbEHWfSeIX3GBcZRCY-8">
          <mxGeometry y="40" width="480" height="26" as="geometry" />
        </mxCell>
        <mxCell id="TvfbEHWfSeIX3GBcZRCY-11" value="" style="line;strokeWidth=1;fillColor=none;align=left;verticalAlign=middle;spacingTop=-1;spacingLeft=3;spacingRight=3;rotatable=0;labelPosition=right;points=[];portConstraint=eastwest;strokeColor=inherit;" vertex="1" parent="TvfbEHWfSeIX3GBcZRCY-8">
          <mxGeometry y="66" width="480" height="8" as="geometry" />
        </mxCell>
        <mxCell id="TvfbEHWfSeIX3GBcZRCY-16" value="" style="endArrow=block;dashed=1;endFill=0;endSize=12;html=1;rounded=0;edgeStyle=orthogonalEdgeStyle;" edge="1" parent="1" source="TvfbEHWfSeIX3GBcZRCY-8" target="TvfbEHWfSeIX3GBcZRCY-2">
          <mxGeometry width="160" relative="1" as="geometry">
            <mxPoint x="380" y="470" as="sourcePoint" />
            <mxPoint x="540" y="470" as="targetPoint" />
          </mxGeometry>
        </mxCell>
        <mxCell id="TvfbEHWfSeIX3GBcZRCY-17" value=":ShmReceiver" style="shape=umlLifeline;perimeter=lifelinePerimeter;whiteSpace=wrap;html=1;container=1;dropTarget=0;collapsible=0;recursiveResize=0;outlineConnect=0;portConstraint=eastwest;newEdgeStyle={&quot;curved&quot;:0,&quot;rounded&quot;:0};" vertex="1" parent="1">
          <mxGeometry x="320" y="585" width="100" height="300" as="geometry" />
        </mxCell>
        <mxCell id="TvfbEHWfSeIX3GBcZRCY-19" value="" style="html=1;points=[[0,0,0,0,5],[0,1,0,0,-5],[1,0,0,0,5],[1,1,0,0,-5]];perimeter=orthogonalPerimeter;outlineConnect=0;targetShapes=umlLifeline;portConstraint=eastwest;newEdgeStyle={&quot;curved&quot;:0,&quot;rounded&quot;:0};" vertex="1" parent="TvfbEHWfSeIX3GBcZRCY-17">
          <mxGeometry x="45" y="95" width="10" height="105" as="geometry" />
        </mxCell>
        <mxCell id="TvfbEHWfSeIX3GBcZRCY-18" value=":Object" style="shape=umlLifeline;perimeter=lifelinePerimeter;whiteSpace=wrap;html=1;container=1;dropTarget=0;collapsible=0;recursiveResize=0;outlineConnect=0;portConstraint=eastwest;newEdgeStyle={&quot;curved&quot;:0,&quot;rounded&quot;:0};" vertex="1" parent="1">
          <mxGeometry x="170" y="585" width="100" height="300" as="geometry" />
        </mxCell>
        <mxCell id="TvfbEHWfSeIX3GBcZRCY-20" value="Enable()" style="html=1;verticalAlign=bottom;endArrow=block;curved=0;rounded=0;entryX=0;entryY=0;entryDx=0;entryDy=5;edgeStyle=orthogonalEdgeStyle;" edge="1" target="TvfbEHWfSeIX3GBcZRCY-19" parent="1" source="TvfbEHWfSeIX3GBcZRCY-18">
          <mxGeometry x="0.0011" relative="1" as="geometry">
            <mxPoint x="295" y="685" as="sourcePoint" />
            <Array as="points">
              <mxPoint x="260" y="685" />
              <mxPoint x="260" y="685" />
            </Array>
            <mxPoint as="offset" />
          </mxGeometry>
        </mxCell>
        <mxCell id="TvfbEHWfSeIX3GBcZRCY-21" value="return" style="html=1;verticalAlign=bottom;endArrow=open;dashed=1;endSize=8;curved=0;rounded=0;exitX=0;exitY=1;exitDx=0;exitDy=-5;edgeStyle=orthogonalEdgeStyle;" edge="1" source="TvfbEHWfSeIX3GBcZRCY-19" parent="1" target="TvfbEHWfSeIX3GBcZRCY-18">
          <mxGeometry relative="1" as="geometry">
            <mxPoint x="295" y="755" as="targetPoint" />
            <Array as="points">
              <mxPoint x="330" y="780" />
              <mxPoint x="330" y="780" />
            </Array>
          </mxGeometry>
        </mxCell>
        <mxCell id="TvfbEHWfSeIX3GBcZRCY-22" value=":ShmDispatcher" style="shape=umlLifeline;perimeter=lifelinePerimeter;whiteSpace=wrap;html=1;container=1;dropTarget=0;collapsible=0;recursiveResize=0;outlineConnect=0;portConstraint=eastwest;newEdgeStyle={&quot;curved&quot;:0,&quot;rounded&quot;:0};" vertex="1" parent="1">
          <mxGeometry x="480" y="585" width="100" height="300" as="geometry" />
        </mxCell>
        <mxCell id="TvfbEHWfSeIX3GBcZRCY-25" value="" style="html=1;points=[[0,0,0,0,5],[0,1,0,0,-5],[1,0,0,0,5],[1,1,0,0,-5]];perimeter=orthogonalPerimeter;outlineConnect=0;targetShapes=umlLifeline;portConstraint=eastwest;newEdgeStyle={&quot;curved&quot;:0,&quot;rounded&quot;:0};" vertex="1" parent="TvfbEHWfSeIX3GBcZRCY-22">
          <mxGeometry x="45" y="115" width="10" height="80" as="geometry" />
        </mxCell>
        <mxCell id="TvfbEHWfSeIX3GBcZRCY-26" value="AddListener(listener:MessageListener&amp;lt;MessageT&amp;gt;)" style="html=1;verticalAlign=bottom;endArrow=block;curved=0;rounded=0;entryX=0;entryY=0;entryDx=0;entryDy=5;edgeStyle=orthogonalEdgeStyle;" edge="1" target="TvfbEHWfSeIX3GBcZRCY-25" parent="1" source="TvfbEHWfSeIX3GBcZRCY-19">
          <mxGeometry x="0.8" y="5" relative="1" as="geometry">
            <mxPoint x="455" y="705" as="sourcePoint" />
            <Array as="points">
              <mxPoint x="410" y="705" />
              <mxPoint x="410" y="705" />
            </Array>
            <mxPoint as="offset" />
          </mxGeometry>
        </mxCell>
        <mxCell id="TvfbEHWfSeIX3GBcZRCY-28" value="WritableBlock" style="swimlane;fontStyle=1;align=center;verticalAlign=top;childLayout=stackLayout;horizontal=1;startSize=30;horizontalStack=0;resizeParent=1;resizeParentMax=0;resizeLast=0;collapsible=1;marginBottom=0;whiteSpace=wrap;html=1;" vertex="1" parent="1">
          <mxGeometry x="985" y="280" width="140" height="116" as="geometry" />
        </mxCell>
        <mxCell id="TvfbEHWfSeIX3GBcZRCY-29" value="+ index: uint32_t" style="text;strokeColor=none;fillColor=none;align=left;verticalAlign=top;spacingLeft=4;spacingRight=4;overflow=hidden;rotatable=0;points=[[0,0.5],[1,0.5]];portConstraint=eastwest;whiteSpace=wrap;html=1;" vertex="1" parent="TvfbEHWfSeIX3GBcZRCY-28">
          <mxGeometry y="30" width="140" height="26" as="geometry" />
        </mxCell>
        <mxCell id="TvfbEHWfSeIX3GBcZRCY-31" value="+ block: Block" style="text;strokeColor=none;fillColor=none;align=left;verticalAlign=top;spacingLeft=4;spacingRight=4;overflow=hidden;rotatable=0;points=[[0,0.5],[1,0.5]];portConstraint=eastwest;whiteSpace=wrap;html=1;" vertex="1" parent="TvfbEHWfSeIX3GBcZRCY-28">
          <mxGeometry y="56" width="140" height="26" as="geometry" />
        </mxCell>
        <mxCell id="TvfbEHWfSeIX3GBcZRCY-32" value="+ buf: uint8_t*" style="text;strokeColor=none;fillColor=none;align=left;verticalAlign=top;spacingLeft=4;spacingRight=4;overflow=hidden;rotatable=0;points=[[0,0.5],[1,0.5]];portConstraint=eastwest;whiteSpace=wrap;html=1;" vertex="1" parent="TvfbEHWfSeIX3GBcZRCY-28">
          <mxGeometry y="82" width="140" height="26" as="geometry" />
        </mxCell>
        <mxCell id="TvfbEHWfSeIX3GBcZRCY-30" value="" style="line;strokeWidth=1;fillColor=none;align=left;verticalAlign=middle;spacingTop=-1;spacingLeft=3;spacingRight=3;rotatable=0;labelPosition=right;points=[];portConstraint=eastwest;strokeColor=inherit;" vertex="1" parent="TvfbEHWfSeIX3GBcZRCY-28">
          <mxGeometry y="108" width="140" height="8" as="geometry" />
        </mxCell>
        <mxCell id="TvfbEHWfSeIX3GBcZRCY-40" value="Block" style="swimlane;fontStyle=1;align=center;verticalAlign=top;childLayout=stackLayout;horizontal=1;startSize=26;horizontalStack=0;resizeParent=1;resizeParentMax=0;resizeLast=0;collapsible=1;marginBottom=0;whiteSpace=wrap;html=1;" vertex="1" parent="1">
          <mxGeometry x="950" y="40" width="210" height="164" as="geometry" />
        </mxCell>
        <mxCell id="TvfbEHWfSeIX3GBcZRCY-41" value="+ field: type" style="text;strokeColor=none;fillColor=none;align=left;verticalAlign=top;spacingLeft=4;spacingRight=4;overflow=hidden;rotatable=0;points=[[0,0.5],[1,0.5]];portConstraint=eastwest;whiteSpace=wrap;html=1;" vertex="1" parent="TvfbEHWfSeIX3GBcZRCY-40">
          <mxGeometry y="26" width="210" height="26" as="geometry" />
        </mxCell>
        <mxCell id="TvfbEHWfSeIX3GBcZRCY-42" value="" style="line;strokeWidth=1;fillColor=none;align=left;verticalAlign=middle;spacingTop=-1;spacingLeft=3;spacingRight=3;rotatable=0;labelPosition=right;points=[];portConstraint=eastwest;strokeColor=inherit;" vertex="1" parent="TvfbEHWfSeIX3GBcZRCY-40">
          <mxGeometry y="52" width="210" height="8" as="geometry" />
        </mxCell>
        <mxCell id="TvfbEHWfSeIX3GBcZRCY-43" value="+ TryLockForWrite(): bool" style="text;strokeColor=none;fillColor=none;align=left;verticalAlign=top;spacingLeft=4;spacingRight=4;overflow=hidden;rotatable=0;points=[[0,0.5],[1,0.5]];portConstraint=eastwest;whiteSpace=wrap;html=1;" vertex="1" parent="TvfbEHWfSeIX3GBcZRCY-40">
          <mxGeometry y="60" width="210" height="26" as="geometry" />
        </mxCell>
        <mxCell id="TvfbEHWfSeIX3GBcZRCY-44" value="+ TryLockForRead(): bool" style="text;strokeColor=none;fillColor=none;align=left;verticalAlign=top;spacingLeft=4;spacingRight=4;overflow=hidden;rotatable=0;points=[[0,0.5],[1,0.5]];portConstraint=eastwest;whiteSpace=wrap;html=1;" vertex="1" parent="TvfbEHWfSeIX3GBcZRCY-40">
          <mxGeometry y="86" width="210" height="26" as="geometry" />
        </mxCell>
        <mxCell id="TvfbEHWfSeIX3GBcZRCY-45" value="+ ReleaseWriteLock(): bool" style="text;strokeColor=none;fillColor=none;align=left;verticalAlign=top;spacingLeft=4;spacingRight=4;overflow=hidden;rotatable=0;points=[[0,0.5],[1,0.5]];portConstraint=eastwest;whiteSpace=wrap;html=1;" vertex="1" parent="TvfbEHWfSeIX3GBcZRCY-40">
          <mxGeometry y="112" width="210" height="26" as="geometry" />
        </mxCell>
        <mxCell id="TvfbEHWfSeIX3GBcZRCY-46" value="+ ReleaseReadLock(): bool" style="text;strokeColor=none;fillColor=none;align=left;verticalAlign=top;spacingLeft=4;spacingRight=4;overflow=hidden;rotatable=0;points=[[0,0.5],[1,0.5]];portConstraint=eastwest;whiteSpace=wrap;html=1;" vertex="1" parent="TvfbEHWfSeIX3GBcZRCY-40">
          <mxGeometry y="138" width="210" height="26" as="geometry" />
        </mxCell>
        <mxCell id="TvfbEHWfSeIX3GBcZRCY-47" value="" style="endArrow=block;dashed=1;endFill=0;endSize=12;html=1;rounded=0;edgeStyle=orthogonalEdgeStyle;" edge="1" parent="1" source="TvfbEHWfSeIX3GBcZRCY-28" target="TvfbEHWfSeIX3GBcZRCY-40">
          <mxGeometry width="160" relative="1" as="geometry">
            <mxPoint x="1055" y="300" as="sourcePoint" />
            <mxPoint x="990" y="320" as="targetPoint" />
          </mxGeometry>
        </mxCell>
        <mxCell id="TvfbEHWfSeIX3GBcZRCY-48" value=":AddSegment" style="shape=umlLifeline;perimeter=lifelinePerimeter;whiteSpace=wrap;html=1;container=1;dropTarget=0;collapsible=0;recursiveResize=0;outlineConnect=0;portConstraint=eastwest;newEdgeStyle={&quot;curved&quot;:0,&quot;rounded&quot;:0};" vertex="1" parent="1">
          <mxGeometry x="630" y="585" width="100" height="300" as="geometry" />
        </mxCell>
        <mxCell id="TvfbEHWfSeIX3GBcZRCY-49" value="" style="html=1;points=[[0,0,0,0,5],[0,1,0,0,-5],[1,0,0,0,5],[1,1,0,0,-5]];perimeter=orthogonalPerimeter;outlineConnect=0;targetShapes=umlLifeline;portConstraint=eastwest;newEdgeStyle={&quot;curved&quot;:0,&quot;rounded&quot;:0};" vertex="1" parent="TvfbEHWfSeIX3GBcZRCY-48">
          <mxGeometry x="45" y="115" width="10" height="80" as="geometry" />
        </mxCell>
        <mxCell id="TvfbEHWfSeIX3GBcZRCY-50" style="edgeStyle=orthogonalEdgeStyle;rounded=0;orthogonalLoop=1;jettySize=auto;html=1;curved=0;" edge="1" parent="1" source="TvfbEHWfSeIX3GBcZRCY-25" target="TvfbEHWfSeIX3GBcZRCY-49">
          <mxGeometry relative="1" as="geometry">
            <Array as="points" />
          </mxGeometry>
        </mxCell>
        <mxCell id="TvfbEHWfSeIX3GBcZRCY-51" value="1" style="edgeLabel;html=1;align=center;verticalAlign=middle;resizable=0;points=[];" vertex="1" connectable="0" parent="TvfbEHWfSeIX3GBcZRCY-50">
          <mxGeometry x="-0.1159" y="2" relative="1" as="geometry">
            <mxPoint as="offset" />
          </mxGeometry>
        </mxCell>
        <mxCell id="TvfbEHWfSeIX3GBcZRCY-52" value="Text" style="edgeLabel;html=1;align=center;verticalAlign=middle;resizable=0;points=[];" vertex="1" connectable="0" parent="TvfbEHWfSeIX3GBcZRCY-50">
          <mxGeometry x="-0.0206" y="1" relative="1" as="geometry">
            <mxPoint as="offset" />
          </mxGeometry>
        </mxCell>
        <mxCell id="TvfbEHWfSeIX3GBcZRCY-55" value="AddSegment(attr:RoleAttribute)" style="edgeLabel;html=1;align=center;verticalAlign=middle;resizable=0;points=[];" vertex="1" connectable="0" parent="TvfbEHWfSeIX3GBcZRCY-50">
          <mxGeometry x="-0.0206" relative="1" as="geometry">
            <mxPoint y="-10" as="offset" />
          </mxGeometry>
        </mxCell>
        <mxCell id="TvfbEHWfSeIX3GBcZRCY-58" value=":SegmentFactory" style="shape=umlLifeline;perimeter=lifelinePerimeter;whiteSpace=wrap;html=1;container=1;dropTarget=0;collapsible=0;recursiveResize=0;outlineConnect=0;portConstraint=eastwest;newEdgeStyle={&quot;curved&quot;:0,&quot;rounded&quot;:0};" vertex="1" parent="1">
          <mxGeometry x="800" y="585" width="100" height="300" as="geometry" />
        </mxCell>
        <mxCell id="TvfbEHWfSeIX3GBcZRCY-59" value="" style="html=1;points=[[0,0,0,0,5],[0,1,0,0,-5],[1,0,0,0,5],[1,1,0,0,-5]];perimeter=orthogonalPerimeter;outlineConnect=0;targetShapes=umlLifeline;portConstraint=eastwest;newEdgeStyle={&quot;curved&quot;:0,&quot;rounded&quot;:0};" vertex="1" parent="TvfbEHWfSeIX3GBcZRCY-58">
          <mxGeometry x="45" y="115" width="10" height="80" as="geometry" />
        </mxCell>
        <mxCell id="TvfbEHWfSeIX3GBcZRCY-60" style="edgeStyle=orthogonalEdgeStyle;rounded=0;orthogonalLoop=1;jettySize=auto;html=1;curved=0;" edge="1" parent="1" source="TvfbEHWfSeIX3GBcZRCY-49" target="TvfbEHWfSeIX3GBcZRCY-58">
          <mxGeometry relative="1" as="geometry">
            <Array as="points">
              <mxPoint x="720" y="760" />
              <mxPoint x="720" y="760" />
            </Array>
          </mxGeometry>
        </mxCell>
        <mxCell id="TvfbEHWfSeIX3GBcZRCY-61" value="CreateSegment(channel_id:uint64)" style="edgeLabel;html=1;align=center;verticalAlign=middle;resizable=0;points=[];" vertex="1" connectable="0" parent="TvfbEHWfSeIX3GBcZRCY-60">
          <mxGeometry x="0.0361" y="2" relative="1" as="geometry">
            <mxPoint y="-8" as="offset" />
          </mxGeometry>
        </mxCell>
        <mxCell id="TvfbEHWfSeIX3GBcZRCY-62" value="Segment" style="swimlane;fontStyle=1;align=center;verticalAlign=top;childLayout=stackLayout;horizontal=1;startSize=26;horizontalStack=0;resizeParent=1;resizeParentMax=0;resizeLast=0;collapsible=1;marginBottom=0;whiteSpace=wrap;html=1;" vertex="1" parent="1">
          <mxGeometry x="1090" y="490" width="420" height="294" as="geometry" />
        </mxCell>
        <mxCell id="TvfbEHWfSeIX3GBcZRCY-63" value="- conf_: ShmConf" style="text;strokeColor=none;fillColor=none;align=left;verticalAlign=top;spacingLeft=4;spacingRight=4;overflow=hidden;rotatable=0;points=[[0,0.5],[1,0.5]];portConstraint=eastwest;whiteSpace=wrap;html=1;" vertex="1" parent="TvfbEHWfSeIX3GBcZRCY-62">
          <mxGeometry y="26" width="420" height="26" as="geometry" />
        </mxCell>
        <mxCell id="TvfbEHWfSeIX3GBcZRCY-70" value="- channel_id_: uint64_t" style="text;strokeColor=none;fillColor=none;align=left;verticalAlign=top;spacingLeft=4;spacingRight=4;overflow=hidden;rotatable=0;points=[[0,0.5],[1,0.5]];portConstraint=eastwest;whiteSpace=wrap;html=1;" vertex="1" parent="TvfbEHWfSeIX3GBcZRCY-62">
          <mxGeometry y="52" width="420" height="26" as="geometry" />
        </mxCell>
        <mxCell id="TvfbEHWfSeIX3GBcZRCY-71" value="- blocks_: Block" style="text;strokeColor=none;fillColor=none;align=left;verticalAlign=top;spacingLeft=4;spacingRight=4;overflow=hidden;rotatable=0;points=[[0,0.5],[1,0.5]];portConstraint=eastwest;whiteSpace=wrap;html=1;" vertex="1" parent="TvfbEHWfSeIX3GBcZRCY-62">
          <mxGeometry y="78" width="420" height="26" as="geometry" />
        </mxCell>
        <mxCell id="TvfbEHWfSeIX3GBcZRCY-72" value="- block_buf_addrs_: std::unordered_map&amp;lt;uint32_t, uint8_t*&amp;gt;" style="text;strokeColor=none;fillColor=none;align=left;verticalAlign=top;spacingLeft=4;spacingRight=4;overflow=hidden;rotatable=0;points=[[0,0.5],[1,0.5]];portConstraint=eastwest;whiteSpace=wrap;html=1;" vertex="1" parent="TvfbEHWfSeIX3GBcZRCY-62">
          <mxGeometry y="104" width="420" height="26" as="geometry" />
        </mxCell>
        <mxCell id="TvfbEHWfSeIX3GBcZRCY-73" value="- managed_shm_: void*" style="text;strokeColor=none;fillColor=none;align=left;verticalAlign=top;spacingLeft=4;spacingRight=4;overflow=hidden;rotatable=0;points=[[0,0.5],[1,0.5]];portConstraint=eastwest;whiteSpace=wrap;html=1;" vertex="1" parent="TvfbEHWfSeIX3GBcZRCY-62">
          <mxGeometry y="130" width="420" height="26" as="geometry" />
        </mxCell>
        <mxCell id="TvfbEHWfSeIX3GBcZRCY-64" value="" style="line;strokeWidth=1;fillColor=none;align=left;verticalAlign=middle;spacingTop=-1;spacingLeft=3;spacingRight=3;rotatable=0;labelPosition=right;points=[];portConstraint=eastwest;strokeColor=inherit;" vertex="1" parent="TvfbEHWfSeIX3GBcZRCY-62">
          <mxGeometry y="156" width="420" height="8" as="geometry" />
        </mxCell>
        <mxCell id="TvfbEHWfSeIX3GBcZRCY-65" value="+AcquireBlockToWrite(msg_size:size_t, writable_block:WritableBlock):&amp;nbsp;bool" style="text;strokeColor=none;fillColor=none;align=left;verticalAlign=top;spacingLeft=4;spacingRight=4;overflow=hidden;rotatable=0;points=[[0,0.5],[1,0.5]];portConstraint=eastwest;whiteSpace=wrap;html=1;" vertex="1" parent="TvfbEHWfSeIX3GBcZRCY-62">
          <mxGeometry y="164" width="420" height="26" as="geometry" />
        </mxCell>
        <mxCell id="TvfbEHWfSeIX3GBcZRCY-66" value="+ReleaseWrittenBlock(writable_block:WritableBlock): void" style="text;strokeColor=none;fillColor=none;align=left;verticalAlign=top;spacingLeft=4;spacingRight=4;overflow=hidden;rotatable=0;points=[[0,0.5],[1,0.5]];portConstraint=eastwest;whiteSpace=wrap;html=1;" vertex="1" parent="TvfbEHWfSeIX3GBcZRCY-62">
          <mxGeometry y="190" width="420" height="26" as="geometry" />
        </mxCell>
        <mxCell id="TvfbEHWfSeIX3GBcZRCY-67" value="+AcquireBlockToRead(readable_block:ReadableBlock):&amp;nbsp;bool" style="text;strokeColor=none;fillColor=none;align=left;verticalAlign=top;spacingLeft=4;spacingRight=4;overflow=hidden;rotatable=0;points=[[0,0.5],[1,0.5]];portConstraint=eastwest;whiteSpace=wrap;html=1;" vertex="1" parent="TvfbEHWfSeIX3GBcZRCY-62">
          <mxGeometry y="216" width="420" height="26" as="geometry" />
        </mxCell>
        <mxCell id="TvfbEHWfSeIX3GBcZRCY-68" value="+ReleaseReadBlock(readable_block:ReadableBlock): void" style="text;strokeColor=none;fillColor=none;align=left;verticalAlign=top;spacingLeft=4;spacingRight=4;overflow=hidden;rotatable=0;points=[[0,0.5],[1,0.5]];portConstraint=eastwest;whiteSpace=wrap;html=1;" vertex="1" parent="TvfbEHWfSeIX3GBcZRCY-62">
          <mxGeometry y="242" width="420" height="26" as="geometry" />
        </mxCell>
        <mxCell id="TvfbEHWfSeIX3GBcZRCY-69" value="+ReleaseReadBlock(readable_block:ReadableBlock): void" style="text;strokeColor=none;fillColor=none;align=left;verticalAlign=top;spacingLeft=4;spacingRight=4;overflow=hidden;rotatable=0;points=[[0,0.5],[1,0.5]];portConstraint=eastwest;whiteSpace=wrap;html=1;" vertex="1" parent="TvfbEHWfSeIX3GBcZRCY-62">
          <mxGeometry y="268" width="420" height="26" as="geometry" />
        </mxCell>
        <mxCell id="TvfbEHWfSeIX3GBcZRCY-74" value="PosixSegment" style="swimlane;fontStyle=1;align=center;verticalAlign=top;childLayout=stackLayout;horizontal=1;startSize=26;horizontalStack=0;resizeParent=1;resizeParentMax=0;resizeLast=0;collapsible=1;marginBottom=0;whiteSpace=wrap;html=1;" vertex="1" parent="1">
          <mxGeometry x="1090" y="840" width="420" height="34" as="geometry" />
        </mxCell>
        <mxCell id="TvfbEHWfSeIX3GBcZRCY-80" value="" style="line;strokeWidth=1;fillColor=none;align=left;verticalAlign=middle;spacingTop=-1;spacingLeft=3;spacingRight=3;rotatable=0;labelPosition=right;points=[];portConstraint=eastwest;strokeColor=inherit;" vertex="1" parent="TvfbEHWfSeIX3GBcZRCY-74">
          <mxGeometry y="26" width="420" height="8" as="geometry" />
        </mxCell>
        <mxCell id="TvfbEHWfSeIX3GBcZRCY-86" value="" style="endArrow=block;dashed=1;endFill=0;endSize=12;html=1;rounded=0;edgeStyle=orthogonalEdgeStyle;" edge="1" parent="1" source="TvfbEHWfSeIX3GBcZRCY-74" target="TvfbEHWfSeIX3GBcZRCY-62">
          <mxGeometry width="160" relative="1" as="geometry">
            <mxPoint x="1180" y="810" as="sourcePoint" />
            <mxPoint x="1340" y="810" as="targetPoint" />
          </mxGeometry>
        </mxCell>
        <mxCell id="TvfbEHWfSeIX3GBcZRCY-87" value="NotifierBase" style="swimlane;fontStyle=1;align=center;verticalAlign=top;childLayout=stackLayout;horizontal=1;startSize=26;horizontalStack=0;resizeParent=1;resizeParentMax=0;resizeLast=0;collapsible=1;marginBottom=0;whiteSpace=wrap;html=1;" vertex="1" parent="1">
          <mxGeometry x="1850" y="40" width="310" height="110" as="geometry" />
        </mxCell>
        <mxCell id="TvfbEHWfSeIX3GBcZRCY-89" value="" style="line;strokeWidth=1;fillColor=none;align=left;verticalAlign=middle;spacingTop=-1;spacingLeft=3;spacingRight=3;rotatable=0;labelPosition=right;points=[];portConstraint=eastwest;strokeColor=inherit;" vertex="1" parent="TvfbEHWfSeIX3GBcZRCY-87">
          <mxGeometry y="26" width="310" height="8" as="geometry" />
        </mxCell>
        <mxCell id="TvfbEHWfSeIX3GBcZRCY-90" value="+ Shutdown(): void = 0" style="text;strokeColor=none;fillColor=none;align=left;verticalAlign=top;spacingLeft=4;spacingRight=4;overflow=hidden;rotatable=0;points=[[0,0.5],[1,0.5]];portConstraint=eastwest;whiteSpace=wrap;html=1;" vertex="1" parent="TvfbEHWfSeIX3GBcZRCY-87">
          <mxGeometry y="34" width="310" height="26" as="geometry" />
        </mxCell>
        <mxCell id="TvfbEHWfSeIX3GBcZRCY-91" value="+ Notify(info: ReadableInfo): void = 0" style="text;strokeColor=none;fillColor=none;align=left;verticalAlign=top;spacingLeft=4;spacingRight=4;overflow=hidden;rotatable=0;points=[[0,0.5],[1,0.5]];portConstraint=eastwest;whiteSpace=wrap;html=1;" vertex="1" parent="TvfbEHWfSeIX3GBcZRCY-87">
          <mxGeometry y="60" width="310" height="26" as="geometry" />
        </mxCell>
        <mxCell id="TvfbEHWfSeIX3GBcZRCY-92" value="+ Listen(timeout_ms:int, info：ReadableInfo*): void = 0" style="text;strokeColor=none;fillColor=none;align=left;verticalAlign=top;spacingLeft=4;spacingRight=4;overflow=hidden;rotatable=0;points=[[0,0.5],[1,0.5]];portConstraint=eastwest;whiteSpace=wrap;html=1;" vertex="1" parent="TvfbEHWfSeIX3GBcZRCY-87">
          <mxGeometry y="86" width="310" height="24" as="geometry" />
        </mxCell>
        <mxCell id="TvfbEHWfSeIX3GBcZRCY-93" value="ConditionNotifier" style="swimlane;fontStyle=1;align=center;verticalAlign=top;childLayout=stackLayout;horizontal=1;startSize=26;horizontalStack=0;resizeParent=1;resizeParentMax=0;resizeLast=0;collapsible=1;marginBottom=0;whiteSpace=wrap;html=1;" vertex="1" parent="1">
          <mxGeometry x="1750" y="228" width="250" height="314" as="geometry" />
        </mxCell>
        <mxCell id="TvfbEHWfSeIX3GBcZRCY-95" value="- key_: key_t" style="text;strokeColor=none;fillColor=none;align=left;verticalAlign=top;spacingLeft=4;spacingRight=4;overflow=hidden;rotatable=0;points=[[0,0.5],[1,0.5]];portConstraint=eastwest;whiteSpace=wrap;html=1;" vertex="1" parent="TvfbEHWfSeIX3GBcZRCY-93">
          <mxGeometry y="26" width="250" height="26" as="geometry" />
        </mxCell>
        <mxCell id="TvfbEHWfSeIX3GBcZRCY-107" value="- managed_shm_: void*" style="text;strokeColor=none;fillColor=none;align=left;verticalAlign=top;spacingLeft=4;spacingRight=4;overflow=hidden;rotatable=0;points=[[0,0.5],[1,0.5]];portConstraint=eastwest;whiteSpace=wrap;html=1;" vertex="1" parent="TvfbEHWfSeIX3GBcZRCY-93">
          <mxGeometry y="52" width="250" height="26" as="geometry" />
        </mxCell>
        <mxCell id="TvfbEHWfSeIX3GBcZRCY-108" value="- shm_size_:&amp;nbsp;size_t" style="text;strokeColor=none;fillColor=none;align=left;verticalAlign=top;spacingLeft=4;spacingRight=4;overflow=hidden;rotatable=0;points=[[0,0.5],[1,0.5]];portConstraint=eastwest;whiteSpace=wrap;html=1;" vertex="1" parent="TvfbEHWfSeIX3GBcZRCY-93">
          <mxGeometry y="78" width="250" height="26" as="geometry" />
        </mxCell>
        <mxCell id="TvfbEHWfSeIX3GBcZRCY-109" value="- indicator_:&amp;nbsp;Indicator*" style="text;strokeColor=none;fillColor=none;align=left;verticalAlign=top;spacingLeft=4;spacingRight=4;overflow=hidden;rotatable=0;points=[[0,0.5],[1,0.5]];portConstraint=eastwest;whiteSpace=wrap;html=1;" vertex="1" parent="TvfbEHWfSeIX3GBcZRCY-93">
          <mxGeometry y="104" width="250" height="26" as="geometry" />
        </mxCell>
        <mxCell id="TvfbEHWfSeIX3GBcZRCY-125" value="- next_seq_:&amp;nbsp;uint64_t" style="text;strokeColor=none;fillColor=none;align=left;verticalAlign=top;spacingLeft=4;spacingRight=4;overflow=hidden;rotatable=0;points=[[0,0.5],[1,0.5]];portConstraint=eastwest;whiteSpace=wrap;html=1;" vertex="1" parent="TvfbEHWfSeIX3GBcZRCY-93">
          <mxGeometry y="130" width="250" height="26" as="geometry" />
        </mxCell>
        <mxCell id="TvfbEHWfSeIX3GBcZRCY-126" value="- - is_shutdown_:&amp;nbsp;std::atomic&amp;lt;bool&amp;gt;" style="text;strokeColor=none;fillColor=none;align=left;verticalAlign=top;spacingLeft=4;spacingRight=4;overflow=hidden;rotatable=0;points=[[0,0.5],[1,0.5]];portConstraint=eastwest;whiteSpace=wrap;html=1;" vertex="1" parent="TvfbEHWfSeIX3GBcZRCY-93">
          <mxGeometry y="156" width="250" height="26" as="geometry" />
        </mxCell>
        <mxCell id="TvfbEHWfSeIX3GBcZRCY-94" value="" style="line;strokeWidth=1;fillColor=none;align=left;verticalAlign=middle;spacingTop=-1;spacingLeft=3;spacingRight=3;rotatable=0;labelPosition=right;points=[];portConstraint=eastwest;strokeColor=inherit;" vertex="1" parent="TvfbEHWfSeIX3GBcZRCY-93">
          <mxGeometry y="182" width="250" height="8" as="geometry" />
        </mxCell>
        <mxCell id="TvfbEHWfSeIX3GBcZRCY-106" value="- Init(): bool" style="text;strokeColor=none;fillColor=none;align=left;verticalAlign=top;spacingLeft=4;spacingRight=4;overflow=hidden;rotatable=0;points=[[0,0.5],[1,0.5]];portConstraint=eastwest;whiteSpace=wrap;html=1;" vertex="1" parent="TvfbEHWfSeIX3GBcZRCY-93">
          <mxGeometry y="190" width="250" height="26" as="geometry" />
        </mxCell>
        <mxCell id="TvfbEHWfSeIX3GBcZRCY-96" value="+ OpenOrCreate(): bool" style="text;strokeColor=none;fillColor=none;align=left;verticalAlign=top;spacingLeft=4;spacingRight=4;overflow=hidden;rotatable=0;points=[[0,0.5],[1,0.5]];portConstraint=eastwest;whiteSpace=wrap;html=1;" vertex="1" parent="TvfbEHWfSeIX3GBcZRCY-93">
          <mxGeometry y="216" width="250" height="26" as="geometry" />
        </mxCell>
        <mxCell id="TvfbEHWfSeIX3GBcZRCY-104" value="+ OpenOnly(): bool" style="text;strokeColor=none;fillColor=none;align=left;verticalAlign=top;spacingLeft=4;spacingRight=4;overflow=hidden;rotatable=0;points=[[0,0.5],[1,0.5]];portConstraint=eastwest;whiteSpace=wrap;html=1;" vertex="1" parent="TvfbEHWfSeIX3GBcZRCY-93">
          <mxGeometry y="242" width="250" height="24" as="geometry" />
        </mxCell>
        <mxCell id="TvfbEHWfSeIX3GBcZRCY-97" value="+ Remove(): bool" style="text;strokeColor=none;fillColor=none;align=left;verticalAlign=top;spacingLeft=4;spacingRight=4;overflow=hidden;rotatable=0;points=[[0,0.5],[1,0.5]];portConstraint=eastwest;whiteSpace=wrap;html=1;" vertex="1" parent="TvfbEHWfSeIX3GBcZRCY-93">
          <mxGeometry y="266" width="250" height="24" as="geometry" />
        </mxCell>
        <mxCell id="TvfbEHWfSeIX3GBcZRCY-105" value="+ Reset(): void" style="text;strokeColor=none;fillColor=none;align=left;verticalAlign=top;spacingLeft=4;spacingRight=4;overflow=hidden;rotatable=0;points=[[0,0.5],[1,0.5]];portConstraint=eastwest;whiteSpace=wrap;html=1;" vertex="1" parent="TvfbEHWfSeIX3GBcZRCY-93">
          <mxGeometry y="290" width="250" height="24" as="geometry" />
        </mxCell>
        <mxCell id="TvfbEHWfSeIX3GBcZRCY-103" value="" style="endArrow=block;dashed=1;endFill=0;endSize=12;html=1;rounded=0;edgeStyle=orthogonalEdgeStyle;" edge="1" parent="1" source="TvfbEHWfSeIX3GBcZRCY-93" target="TvfbEHWfSeIX3GBcZRCY-87">
          <mxGeometry width="160" relative="1" as="geometry">
            <mxPoint x="1710" y="220" as="sourcePoint" />
            <mxPoint x="1870" y="220" as="targetPoint" />
            <Array as="points">
              <mxPoint x="1880" y="230" />
              <mxPoint x="1880" y="230" />
            </Array>
          </mxGeometry>
        </mxCell>
        <mxCell id="TvfbEHWfSeIX3GBcZRCY-110" value="Indicator" style="swimlane;fontStyle=1;align=center;verticalAlign=top;childLayout=stackLayout;horizontal=1;startSize=26;horizontalStack=0;resizeParent=1;resizeParentMax=0;resizeLast=0;collapsible=1;marginBottom=0;whiteSpace=wrap;html=1;" vertex="1" parent="1">
          <mxGeometry x="1500" y="66" width="310" height="112" as="geometry" />
        </mxCell>
        <mxCell id="TvfbEHWfSeIX3GBcZRCY-115" value="- next_seq:&amp;nbsp;std::atomic&amp;lt;uint64_t&amp;gt;" style="text;strokeColor=none;fillColor=none;align=left;verticalAlign=top;spacingLeft=4;spacingRight=4;overflow=hidden;rotatable=0;points=[[0,0.5],[1,0.5]];portConstraint=eastwest;whiteSpace=wrap;html=1;" vertex="1" parent="TvfbEHWfSeIX3GBcZRCY-110">
          <mxGeometry y="26" width="310" height="26" as="geometry" />
        </mxCell>
        <mxCell id="TvfbEHWfSeIX3GBcZRCY-116" value="- infos:&amp;nbsp;ReadableInfo[kBufLength]" style="text;strokeColor=none;fillColor=none;align=left;verticalAlign=top;spacingLeft=4;spacingRight=4;overflow=hidden;rotatable=0;points=[[0,0.5],[1,0.5]];portConstraint=eastwest;whiteSpace=wrap;html=1;" vertex="1" parent="TvfbEHWfSeIX3GBcZRCY-110">
          <mxGeometry y="52" width="310" height="26" as="geometry" />
        </mxCell>
        <mxCell id="TvfbEHWfSeIX3GBcZRCY-122" value="- seqs:&amp;nbsp;uint64_t[kBufLength]" style="text;strokeColor=none;fillColor=none;align=left;verticalAlign=top;spacingLeft=4;spacingRight=4;overflow=hidden;rotatable=0;points=[[0,0.5],[1,0.5]];portConstraint=eastwest;whiteSpace=wrap;html=1;" vertex="1" parent="TvfbEHWfSeIX3GBcZRCY-110">
          <mxGeometry y="78" width="310" height="26" as="geometry" />
        </mxCell>
        <mxCell id="TvfbEHWfSeIX3GBcZRCY-111" value="" style="line;strokeWidth=1;fillColor=none;align=left;verticalAlign=middle;spacingTop=-1;spacingLeft=3;spacingRight=3;rotatable=0;labelPosition=right;points=[];portConstraint=eastwest;strokeColor=inherit;" vertex="1" parent="TvfbEHWfSeIX3GBcZRCY-110">
          <mxGeometry y="104" width="310" height="8" as="geometry" />
        </mxCell>
        <mxCell id="TvfbEHWfSeIX3GBcZRCY-117" value="ReadableInfo" style="swimlane;fontStyle=1;align=center;verticalAlign=top;childLayout=stackLayout;horizontal=1;startSize=26;horizontalStack=0;resizeParent=1;resizeParentMax=0;resizeLast=0;collapsible=1;marginBottom=0;whiteSpace=wrap;html=1;" vertex="1" parent="1">
          <mxGeometry x="1500" y="-100" width="310" height="112" as="geometry" />
        </mxCell>
        <mxCell id="TvfbEHWfSeIX3GBcZRCY-118" value="- host_id_:&amp;nbsp;uint64_t" style="text;strokeColor=none;fillColor=none;align=left;verticalAlign=top;spacingLeft=4;spacingRight=4;overflow=hidden;rotatable=0;points=[[0,0.5],[1,0.5]];portConstraint=eastwest;whiteSpace=wrap;html=1;" vertex="1" parent="TvfbEHWfSeIX3GBcZRCY-117">
          <mxGeometry y="26" width="310" height="26" as="geometry" />
        </mxCell>
        <mxCell id="TvfbEHWfSeIX3GBcZRCY-119" value="- block_index_:&amp;nbsp;uint32_t" style="text;strokeColor=none;fillColor=none;align=left;verticalAlign=top;spacingLeft=4;spacingRight=4;overflow=hidden;rotatable=0;points=[[0,0.5],[1,0.5]];portConstraint=eastwest;whiteSpace=wrap;html=1;" vertex="1" parent="TvfbEHWfSeIX3GBcZRCY-117">
          <mxGeometry y="52" width="310" height="26" as="geometry" />
        </mxCell>
        <mxCell id="TvfbEHWfSeIX3GBcZRCY-121" value="- channel_id_:&amp;nbsp;uint64_t" style="text;strokeColor=none;fillColor=none;align=left;verticalAlign=top;spacingLeft=4;spacingRight=4;overflow=hidden;rotatable=0;points=[[0,0.5],[1,0.5]];portConstraint=eastwest;whiteSpace=wrap;html=1;" vertex="1" parent="TvfbEHWfSeIX3GBcZRCY-117">
          <mxGeometry y="78" width="310" height="26" as="geometry" />
        </mxCell>
        <mxCell id="TvfbEHWfSeIX3GBcZRCY-120" value="" style="line;strokeWidth=1;fillColor=none;align=left;verticalAlign=middle;spacingTop=-1;spacingLeft=3;spacingRight=3;rotatable=0;labelPosition=right;points=[];portConstraint=eastwest;strokeColor=inherit;" vertex="1" parent="TvfbEHWfSeIX3GBcZRCY-117">
          <mxGeometry y="104" width="310" height="8" as="geometry" />
        </mxCell>
        <mxCell id="TvfbEHWfSeIX3GBcZRCY-124" value="" style="endArrow=block;dashed=1;endFill=0;endSize=12;html=1;rounded=0;edgeStyle=orthogonalEdgeStyle;" edge="1" parent="1" source="TvfbEHWfSeIX3GBcZRCY-110" target="TvfbEHWfSeIX3GBcZRCY-117">
          <mxGeometry width="160" relative="1" as="geometry">
            <mxPoint x="1520" y="40" as="sourcePoint" />
            <mxPoint x="1680" y="40" as="targetPoint" />
          </mxGeometry>
        </mxCell>
      </root>
    </mxGraphModel>
  </diagram>
</mxfile>
